<svg id="visual" viewBox="0 0 960 360" width="960" height="360" xmlns="http://www.w3.org/2000/svg" xmlns:xlink="http://www.w3.org/1999/xlink" version="1.1"><path d="M0 95L87 95L87 163L175 163L175 152L262 152L262 127L349 127L349 152L436 152L436 105L524 105L524 87L611 87L611 131L698 131L698 120L785 120L785 149L873 149L873 167L960 167L960 91L960 0L960 0L873 0L873 0L785 0L785 0L698 0L698 0L611 0L611 0L524 0L524 0L436 0L436 0L349 0L349 0L262 0L262 0L175 0L175 0L87 0L87 0L0 0Z" fill="#131313"></path><path d="M0 152L87 152L87 231L175 231L175 188L262 188L262 192L349 192L349 188L436 188L436 131L524 131L524 149L611 149L611 188L698 188L698 181L785 181L785 203L873 203L873 213L960 213L960 123L960 89L960 165L873 165L873 147L785 147L785 118L698 118L698 129L611 129L611 85L524 85L524 103L436 103L436 150L349 150L349 125L262 125L262 150L175 150L175 161L87 161L87 93L0 93Z" fill="#211933"></path><path d="M0 192L87 192L87 275L175 275L175 224L262 224L262 221L349 221L349 235L436 235L436 188L524 188L524 206L611 206L611 217L698 217L698 239L785 239L785 235L873 235L873 239L960 239L960 185L960 121L960 211L873 211L873 201L785 201L785 179L698 179L698 186L611 186L611 147L524 147L524 129L436 129L436 186L349 186L349 190L262 190L262 186L175 186L175 229L87 229L87 150L0 150Z" fill="#2b1e55"></path><path d="M0 303L87 303L87 329L175 329L175 311L262 311L262 282L349 282L349 296L436 296L436 275L524 275L524 303L611 303L611 282L698 282L698 332L785 332L785 303L873 303L873 303L960 303L960 318L960 183L960 237L873 237L873 233L785 233L785 237L698 237L698 215L611 215L611 204L524 204L524 186L436 186L436 233L349 233L349 219L262 219L262 222L175 222L175 273L87 273L87 190L0 190Z" fill="#33227a"></path><path d="M0 361L87 361L87 361L175 361L175 361L262 361L262 361L349 361L349 361L436 361L436 361L524 361L524 361L611 361L611 361L698 361L698 361L785 361L785 361L873 361L873 361L960 361L960 361L960 316L960 301L873 301L873 301L785 301L785 330L698 330L698 280L611 280L611 301L524 301L524 273L436 273L436 294L349 294L349 280L262 280L262 309L175 309L175 327L87 327L87 301L0 301Z" fill="#3926a0"></path></svg>