<svg id="visual" viewBox="0 0 960 360" width="960" height="360" xmlns="http://www.w3.org/2000/svg" xmlns:xlink="http://www.w3.org/1999/xlink" version="1.1"><path d="M0 48L14.5 49.8C29 51.7 58 55.3 87.2 58.3C116.3 61.3 145.7 63.7 174.8 62.3C204 61 233 56 262 54.8C291 53.7 320 56.3 349 58.8C378 61.3 407 63.7 436.2 63C465.3 62.3 494.7 58.7 523.8 54.5C553 50.3 582 45.7 611 48.7C640 51.7 669 62.3 698 64C727 65.7 756 58.3 785.2 58.3C814.3 58.3 843.7 65.7 872.8 68.2C902 70.7 931 68.3 945.5 67.2L960 66L960 0L945.5 0C931 0 902 0 872.8 0C843.7 0 814.3 0 785.2 0C756 0 727 0 698 0C669 0 640 0 611 0C582 0 553 0 523.8 0C494.7 0 465.3 0 436.2 0C407 0 378 0 349 0C320 0 291 0 262 0C233 0 204 0 174.8 0C145.7 0 116.3 0 87.2 0C58 0 29 0 14.5 0L0 0Z" fill="#292c4b"></path><path d="M0 87L14.5 87C29 87 58 87 87.2 93C116.3 99 145.7 111 174.8 109.8C204 108.7 233 94.3 262 88.3C291 82.3 320 84.7 349 90.2C378 95.7 407 104.3 436.2 104.3C465.3 104.3 494.7 95.7 523.8 88.3C553 81 582 75 611 78C640 81 669 93 698 96C727 99 756 93 785.2 93.7C814.3 94.3 843.7 101.7 872.8 102.3C902 103 931 97 945.5 94L960 91L960 64L945.5 65.2C931 66.3 902 68.7 872.8 66.2C843.7 63.7 814.3 56.3 785.2 56.3C756 56.3 727 63.7 698 62C669 60.3 640 49.7 611 46.7C582 43.7 553 48.3 523.8 52.5C494.7 56.7 465.3 60.3 436.2 61C407 61.7 378 59.3 349 56.8C320 54.3 291 51.7 262 52.8C233 54 204 59 174.8 60.3C145.7 61.7 116.3 59.3 87.2 56.3C58 53.3 29 49.7 14.5 47.8L0 46Z" fill="#51356d"></path><path d="M0 217L14.5 214.7C29 212.3 58 207.7 87.2 205.3C116.3 203 145.7 203 174.8 198.2C204 193.3 233 183.7 262 182.3C291 181 320 188 349 190.3C378 192.7 407 190.3 436.2 190.3C465.3 190.3 494.7 192.7 523.8 195.7C553 198.7 582 202.3 611 205.3C640 208.3 669 210.7 698 217.3C727 224 756 235 785.2 236.3C814.3 237.7 843.7 229.3 872.8 219.7C902 210 931 199 945.5 193.5L960 188L960 89L945.5 92C931 95 902 101 872.8 100.3C843.7 99.7 814.3 92.3 785.2 91.7C756 91 727 97 698 94C669 91 640 79 611 76C582 73 553 79 523.8 86.3C494.7 93.7 465.3 102.3 436.2 102.3C407 102.3 378 93.7 349 88.2C320 82.7 291 80.3 262 86.3C233 92.3 204 106.7 174.8 107.8C145.7 109 116.3 97 87.2 91C58 85 29 85 14.5 85L0 85Z" fill="#8a3480"></path><path d="M0 275L14.5 275C29 275 58 275 87.2 270.2C116.3 265.3 145.7 255.7 174.8 252C204 248.3 233 250.7 262 249.5C291 248.3 320 243.7 349 246.7C378 249.7 407 260.3 436.2 264.5C465.3 268.7 494.7 266.3 523.8 265.7C553 265 582 266 611 266C640 266 669 265 698 268C727 271 756 278 785.2 280.3C814.3 282.7 843.7 280.3 872.8 273.2C902 266 931 254 945.5 248L960 242L960 186L945.5 191.5C931 197 902 208 872.8 217.7C843.7 227.3 814.3 235.7 785.2 234.3C756 233 727 222 698 215.3C669 208.7 640 206.3 611 203.3C582 200.3 553 196.7 523.8 193.7C494.7 190.7 465.3 188.3 436.2 188.3C407 188.3 378 190.7 349 188.3C320 186 291 179 262 180.3C233 181.7 204 191.3 174.8 196.2C145.7 201 116.3 201 87.2 203.3C58 205.7 29 210.3 14.5 212.7L0 215Z" fill="#c72380"></path><path d="M0 361L14.5 361C29 361 58 361 87.2 361C116.3 361 145.7 361 174.8 361C204 361 233 361 262 361C291 361 320 361 349 361C378 361 407 361 436.2 361C465.3 361 494.7 361 523.8 361C553 361 582 361 611 361C640 361 669 361 698 361C727 361 756 361 785.2 361C814.3 361 843.7 361 872.8 361C902 361 931 361 945.5 361L960 361L960 240L945.5 246C931 252 902 264 872.8 271.2C843.7 278.3 814.3 280.7 785.2 278.3C756 276 727 269 698 266C669 263 640 264 611 264C582 264 553 263 523.8 263.7C494.7 264.3 465.3 266.7 436.2 262.5C407 258.3 378 247.7 349 244.7C320 241.7 291 246.3 262 247.5C233 248.7 204 246.3 174.8 250C145.7 253.7 116.3 263.3 87.2 268.2C58 273 29 273 14.5 273L0 273Z" fill="#ff006c"></path></svg>