<svg id="visual" viewBox="0 0 960 360" width="960" height="360" xmlns="http://www.w3.org/2000/svg" xmlns:xlink="http://www.w3.org/1999/xlink" version="1.1"><rect x="0" y="0" width="960" height="360" fill="#111111"></rect><path d="M0 165L137 165L137 220L274 220L274 170L411 170L411 188L549 188L549 227L686 227L686 188L823 188L823 189L960 189L960 150L960 361L960 361L823 361L823 361L686 361L686 361L549 361L549 361L411 361L411 361L274 361L274 361L137 361L137 361L0 361Z" fill="#ff0000"></path><path d="M0 230L137 230L137 255L274 255L274 246L411 246L411 256L549 256L549 265L686 265L686 269L823 269L823 272L960 272L960 243L960 361L960 361L823 361L823 361L686 361L686 361L549 361L549 361L411 361L411 361L274 361L274 361L137 361L137 361L0 361Z" fill="#970014"></path><path d="M0 278L137 278L137 297L274 297L274 297L411 297L411 277L549 277L549 301L686 301L686 266L823 266L823 265L960 265L960 313L960 361L960 361L823 361L823 361L686 361L686 361L549 361L549 361L411 361L411 361L274 361L274 361L137 361L137 361L0 361Z" fill="#360000"></path></svg>